<?xml version="1.0" standalone="no"?>
<!DOCTYPE svg PUBLIC "-//W3C//DTD SVG 20010904//EN"
 "http://www.w3.org/TR/2001/REC-SVG-20010904/DTD/svg10.dtd">
<svg version="1.0" xmlns="http://www.w3.org/2000/svg"
 width="520.000000pt" height="520.000000pt" viewBox="0 0 520.000000 520.000000"
 preserveAspectRatio="xMidYMid meet">
<metadata>
Created by potrace 1.11, written by Peter Selinger 2001-2013
</metadata>
<g transform="translate(0.000000,520.000000) scale(0.100000,-0.100000)"
fill="#000000" stroke="none">
<path d="M2457 4944 c-1 -1 -38 -5 -82 -9 -215 -19 -466 -83 -685 -174 -217
-92 -494 -268 -645 -413 l-41 -38 -126 125 -125 124 -29 -27 c-66 -61 -70 -51
64 -185 l122 -123 -47 -53 c-312 -351 -509 -759 -579 -1201 -12 -72 -14 -90
-20 -150 -9 -82 -10 -356 -1 -435 20 -181 24 -203 58 -344 72 -295 199 -568
382 -825 28 -39 55 -75 61 -81 6 -5 28 -30 48 -55 20 -25 48 -58 63 -74 l26
-30 -116 -116 c-77 -77 -114 -121 -110 -131 4 -8 22 -27 42 -43 l34 -29 118
117 117 117 64 -57 c288 -252 628 -431 995 -523 44 -11 96 -22 115 -25 19 -3
44 -8 55 -10 130 -26 422 -38 595 -23 332 28 669 135 972 308 94 54 292 194
355 252 21 19 52 46 69 60 l30 26 120 -120 c65 -65 122 -119 126 -119 4 0 25
19 47 42 l41 42 -126 124 c-69 69 -121 128 -116 131 38 27 211 255 288 382
184 304 302 658 331 999 13 152 6 446 -12 535 -3 11 -7 36 -9 55 -59 411 -275
861 -574 1195 l-43 48 130 131 131 131 -42 43 -43 42 -131 -131 -131 -131 -64
58 c-335 301 -792 510 -1244 570 -16 2 -52 6 -80 10 -46 6 -372 13 -378 8z
m408 -138 c98 -15 151 -24 185 -32 14 -3 36 -8 50 -11 56 -10 210 -57 290 -88
248 -96 517 -260 695 -424 l47 -44 -115 -115 -115 -115 -94 75 c-117 94 -237
172 -353 231 -359 179 -771 240 -1155 171 -347 -62 -692 -229 -925 -446 -16
-15 -33 -28 -36 -28 -9 0 -239 230 -239 239 0 12 74 78 168 149 260 198 576
342 892 406 111 22 128 25 205 32 38 4 72 8 74 10 6 5 383 -4 426 -10z m-75
-460 c112 -12 248 -40 355 -74 199 -63 459 -206 590 -326 28 -25 53 -45 58
-46 4 0 7 -6 7 -13 0 -6 -265 -277 -590 -602 l-589 -589 -22 20 c-12 10 -280
278 -596 594 l-575 575 52 45 c206 178 492 322 760 383 55 13 171 30 270 40
40 4 220 -1 280 -7z m-1662 -339 c113 -113 122 -125 106 -138 -59 -49 -218
-279 -287 -414 -74 -146 -147 -349 -163 -455 -3 -19 -9 -51 -14 -70 -29 -114
-33 -541 -5 -622 2 -7 6 -29 9 -48 11 -72 59 -238 97 -334 83 -208 214 -421
356 -576 l23 -25 -127 -127 c-70 -71 -130 -128 -133 -128 -3 1 -41 43 -84 95
-265 315 -444 707 -501 1095 -27 179 -27 526 -1 666 2 11 7 39 11 64 12 81 66
272 101 364 20 50 38 100 41 111 11 36 119 238 168 315 73 114 258 349 275
350 3 0 61 -55 128 -123z m3135 67 c160 -178 319 -434 409 -659 60 -150 120
-376 134 -505 3 -25 8 -52 10 -60 13 -36 16 -334 5 -445 -16 -161 -17 -171
-52 -315 -36 -151 -76 -270 -131 -393 -40 -90 -48 -105 -111 -217 -74 -133
-270 -390 -297 -390 -10 0 -240 230 -240 239 0 3 10 17 23 31 51 55 123 149
169 219 l49 75 -53 33 c-43 26 -55 30 -63 19 -5 -8 -38 -54 -72 -103 -35 -48
-82 -110 -106 -137 l-42 -48 -581 581 c-319 319 -587 587 -594 596 -12 14 57
87 576 606 324 324 593 589 599 589 16 -1 134 -151 196 -249 l55 -88 52 26
c28 14 52 32 52 40 0 19 -117 195 -181 272 -30 35 -60 72 -68 82 -13 17 -5 28
100 133 62 63 115 114 117 114 2 0 23 -21 45 -46z m-2325 -877 l592 -592 -594
-594 c-583 -583 -594 -593 -613 -574 -38 38 -132 160 -177 229 -133 208 -236
489 -264 724 -9 77 -9 373 1 445 16 124 59 283 119 439 23 61 107 216 158 292
58 87 167 224 178 224 4 0 274 -267 600 -593z m1862 -1869 c0 -11 -149 -128
-235 -184 -195 -127 -466 -234 -660 -260 -27 -3 -72 -10 -100 -15 -53 -9 -379
-5 -430 5 -246 49 -372 89 -528 167 -146 73 -270 156 -397 268 l-24 22 594
594 595 595 592 -592 c326 -326 593 -596 593 -600z m-2420 -129 c15 -16 154
-122 210 -160 64 -43 248 -140 325 -171 117 -48 263 -88 410 -113 171 -29 409
-27 605 4 306 49 647 209 896 419 l71 60 122 -122 123 -123 -24 -25 c-86 -91
-319 -256 -488 -345 -149 -79 -408 -175 -530 -197 -14 -2 -45 -9 -70 -14 -122
-28 -230 -37 -425 -37 -163 0 -266 6 -335 20 -13 2 -42 7 -65 11 -130 19 -393
104 -540 174 -194 92 -447 262 -553 371 l-32 33 127 128 c124 124 128 127 148
110 11 -9 22 -19 25 -23z"/>
<path d="M4600 4798 c0 -5 0 -11 0 -15 0 -8 4 -9 35 -12 12 -1 15 -17 15 -76
0 -60 3 -75 15 -75 16 0 18 11 17 102 -1 54 0 56 23 52 23 -4 43 11 31 23 -8
9 -136 9 -136 1z"/>
<path d="M4769 4790 c0 -11 0 -49 0 -85 0 -88 -1 -85 14 -85 9 0 12 17 12 59
-1 70 4 69 25 -2 22 -73 43 -73 68 0 l20 58 1 -57 c1 -45 4 -58 16 -58 8 0 15
8 16 18 1 17 1 137 0 159 -1 8 -8 10 -23 4 -15 -6 -28 -27 -44 -72 l-21 -64
-19 64 c-14 47 -25 66 -42 72 -18 7 -22 5 -23 -11z"/>
</g>
</svg>
