<svg xmlns="http://www.w3.org/2000/svg" viewBox="0 0 100 100"><defs><style>.cls-1{fill:#fff;}</style></defs><title>Asset 1</title><g id="Layer_2" data-name="Layer 2"><g id="svg3070"><path class="cls-1" d="M92.61,0H7.39A7.28,7.28,0,0,0,0,7.16V92.84A7.28,7.28,0,0,0,7.39,100H92.61A7.28,7.28,0,0,0,100,92.84V7.16A7.28,7.28,0,0,0,92.61,0ZM57.34,49.55c0,6.73-1.24,11.2-4.19,15.46C49,70.92,42.77,73.94,34.94,73.94c-13.95,0-24-10-24-23.84s10.31-24,24.32-24c8.59,0,15.39,3.71,19.65,10.79L47.1,41a13.33,13.33,0,0,0-12-6.8c-8.59,0-15,6.8-15,15.94s6.39,15.67,15,15.67c6.53,0,11.34-3.92,12-9.76H36.32v-7.7h21Zm31.76,6.54h-8.2v8.2h-8.2v-8.2h-8.2V48.56h8.2v-8.2h8.2v8.2h8.2Z"/></g></g></svg>