<svg xmlns="http://www.w3.org/2000/svg" viewBox="0 0 100 100"><defs><style>.cls-1{fill:#fff;}.cls-2{fill:none;}</style></defs><title>Asset 1</title><g id="Layer_2" data-name="Layer 2"><g id="Layer_1-2" data-name="Layer 1"><circle class="cls-1" cx="50.02" cy="49.73" r="13.11"/><path class="cls-1" d="M65.2,18.24H34.8A15.62,15.62,0,0,0,19.24,33.8V66.2A15.62,15.62,0,0,0,34.8,81.76H65.2A15.62,15.62,0,0,0,80.76,66.2V33.8A15.62,15.62,0,0,0,65.2,18.24ZM50.11,69.73a20,20,0,1,1,20-20A20,20,0,0,1,50.11,69.73ZM70.45,34.12a4.74,4.74,0,1,1,4.74-4.74A4.74,4.74,0,0,1,70.45,34.12Z"/><path class="cls-1" d="M92.61,0H7.39A7.28,7.28,0,0,0,0,7.16V92.84A7.28,7.28,0,0,0,7.39,100H92.61A7.28,7.28,0,0,0,100,92.84V7.16A7.28,7.28,0,0,0,92.61,0ZM86.35,66.2A21.21,21.21,0,0,1,65.2,87.35H34.8A21.21,21.21,0,0,1,13.65,66.2V33.8A21.21,21.21,0,0,1,34.8,12.65H65.2A21.21,21.21,0,0,1,86.35,33.8Z"/><path class="cls-2" d="M65.2,12.65H34.8A21.21,21.21,0,0,0,13.65,33.8V66.2A21.21,21.21,0,0,0,34.8,87.35H65.2A21.21,21.21,0,0,0,86.35,66.2V33.8A21.21,21.21,0,0,0,65.2,12.65ZM80.76,66.2A15.62,15.62,0,0,1,65.2,81.76H34.8A15.62,15.62,0,0,1,19.24,66.2V33.8A15.62,15.62,0,0,1,34.8,18.24H65.2A15.62,15.62,0,0,1,80.76,33.8Z"/><path class="cls-2" d="M50.11,29.69a20,20,0,1,0,20,20A20,20,0,0,0,50.11,29.69ZM50,62.84A13.11,13.11,0,1,1,63.12,49.73,13.11,13.11,0,0,1,50,62.84Z"/><circle class="cls-2" cx="70.45" cy="29.38" r="4.74"/></g></g></svg>