<svg xmlns="http://www.w3.org/2000/svg" width="250"  viewBox="0 50 250 150">
    <g fill="#FFF">
        <path d="M73.813 84.926l-1.668 17.003 6.602-.618-4.804-16.397z"/>
        <path d="M15.753 69.625v61.094l191.408-18.06V51.564L15.753 69.625zm45.443 43.32a10.706 10.706 0 0 1-1.912 3.607 11.061 11.061 0 0 1-3.116 2.642c-1.218.704-2.562 1.124-4.027 1.262a14.762 14.762 0 0 1-3.867-.161 9.274 9.274 0 0 1-3.662-1.451c-1.115-.742-2.07-1.773-2.869-3.091-.799-1.319-1.297-3.035-1.496-5.149l-2.38-25.372c-.144-1.51-.017-2.937.381-4.281a9.912 9.912 0 0 1 1.885-3.569c.86-1.039 1.922-1.891 3.188-2.554 1.266-.663 2.696-1.068 4.292-1.217 1.51-.145 2.938-.004 4.285.413a10.065 10.065 0 0 1 3.576 1.95c1.04.882 1.894 1.975 2.561 3.285.666 1.307 1.075 2.76 1.226 4.357l.243 2.589-6.601.617-.208-2.199c-.12-1.293-.593-2.381-1.414-3.261-.825-.882-1.862-1.263-3.11-1.146-1.643.155-2.685.766-3.127 1.829-.446 1.065-.595 2.372-.448 3.927l2.212 23.558c.125 1.339.52 2.434 1.19 3.285.666.851 1.754 1.206 3.266 1.063a4.71 4.71 0 0 0 1.368-.357 3.81 3.81 0 0 0 1.289-.871c.379-.385.668-.89.871-1.519.203-.628.261-1.396.175-2.302l-.212-2.264 6.603-.621.268 2.848a10.585 10.585 0 0 1-.43 4.153zm22.231 4.183l-2.869-9.72-8.994.843-1.015 10.085-6.601.619 5.964-47.047 5.502-.517 14.617 45.115-6.604.622zm29.825-10.602c-.231 1.696-.735 3.182-1.508 4.451s-1.862 2.318-3.264 3.146c-1.402.829-3.159 1.34-5.274 1.541-1.598.148-3.111.008-4.545-.423-1.436-.431-2.692-1.086-3.775-1.965a10.904 10.904 0 0 1-2.688-3.241c-.709-1.28-1.136-2.701-1.28-4.253l-.232-2.458 6.604-.621.196 2.07a5.39 5.39 0 0 0 1.372 3.169c.804.904 2.045 1.278 3.729 1.12 1.123-.106 1.98-.35 2.576-.732a3.368 3.368 0 0 0 1.296-1.493c.27-.614.404-1.354.411-2.226a28.465 28.465 0 0 0-.138-2.86c-.113-1.208-.25-2.197-.409-2.966-.162-.768-.402-1.376-.727-1.823a3.379 3.379 0 0 0-1.273-1.057c-.525-.256-1.215-.517-2.064-.786l-4.908-1.497c-2.957-.899-5.011-2.261-6.163-4.092-1.151-1.826-1.86-4.188-2.132-7.078a16.92 16.92 0 0 1 .247-4.987c.33-1.598.906-2.999 1.729-4.209.825-1.21 1.915-2.213 3.276-3.018 1.359-.8 2.99-1.292 4.888-1.471 1.642-.154 3.169.008 4.583.483 1.416.477 2.658 1.166 3.723 2.067a10.679 10.679 0 0 1 2.543 3.124 9.662 9.662 0 0 1 1.132 3.712l.306 3.236-6.601.621-.141-1.488c-.142-1.51-.621-2.783-1.436-3.816s-2.063-1.471-3.746-1.312c-.91.085-1.636.328-2.187.727-.548.4-.959.886-1.234 1.453-.273.571-.44 1.217-.504 1.941a12.49 12.49 0 0 0 .018 2.252c.084.907.188 1.669.311 2.289.125.619.338 1.143.638 1.571.302.429.716.792 1.245 1.092s1.241.58 2.138.843l5.233 1.534c1.521.423 2.769.97 3.747 1.64a8.058 8.058 0 0 1 2.353 2.457c.591.966 1.035 2.1 1.331 3.397.297 1.302.522 2.794.682 4.476.179 1.944.154 3.764-.078 5.46zm17.098 6.197l-6.599.621-3.742-39.869-7.637.716-.582-6.213 21.875-2.054.582 6.216-7.636.716 3.739 39.867zm11.194-1.051l-4.324-46.081 6.603-.621 3.707 39.482 13.074-1.227.62 6.601-19.68 1.846zm23.884-2.239l-4.324-46.082 19.677-1.848.582 6.214-13.074 1.228 1.273 13.525 11.388-1.068.582 6.214-11.392 1.069 1.27 13.525 13.078-1.228.617 6.602-19.677 1.849z"/>
        <g>
            <path d="M117.47 147.899c-.213-.871-.554-1.601-1.021-2.189a3.675 3.675 0 0 0-1.845-1.229c-.766-.234-1.749-.293-2.956-.182l-3.432.324 1.35 14.366 3.754-.351c1.164-.109 2.077-.359 2.737-.747.659-.389 1.146-.901 1.455-1.542.309-.638.488-1.405.535-2.303.045-.896.015-1.926-.095-3.093-.106-1.163-.268-2.182-.482-3.054zM92.592 168.743c-.21-.85-.549-1.545-1.013-2.092-.464-.543-1.077-.931-1.839-1.163-.762-.233-1.748-.293-2.956-.181l-2.913.271 1.387 14.759 2.848-.267c1.337-.127 2.364-.42 3.084-.88.718-.457 1.24-1.051 1.562-1.777.324-.727.485-1.569.481-2.527a34.397 34.397 0 0 0-.162-3.117c-.111-1.167-.269-2.172-.479-3.026zM140.916 148.669l-1.668 17.002 6.603-.617-4.804-16.396zM90.581 157.41c.651-1.173.878-2.812.679-4.929-.193-2.07-.758-3.584-1.697-4.541-.94-.958-2.508-1.332-4.709-1.125l-2.719.256 1.19 12.686 2.978-.282c2.199-.205 3.628-.894 4.278-2.065z"/>
            <path d="M42.841 137.341v61.095l191.406-18.061v-61.094l-191.406 18.06zm54.546 45.252c-1.764 2.344-4.801 3.718-9.115 4.121l-8.995.845-4.324-46.081 9.643-.906c2.112-.198 3.946-.045 5.494.464 1.549.508 2.851 1.257 3.901 2.246a9.774 9.774 0 0 1 2.388 3.528 15.648 15.648 0 0 1 1.024 4.312l.157 1.683c.119 1.254.119 2.319.007 3.199-.113.882-.335 1.664-.661 2.347a7.28 7.28 0 0 1-1.263 1.85 12.573 12.573 0 0 1-1.812 1.575c1.622.585 2.867 1.569 3.737 2.944.869 1.377 1.417 3.273 1.645 5.689l.242 2.588c.379 4.056-.309 7.254-2.068 9.596zm24.67.949l-7.995-19.098-3.95.372 1.848 19.674-6.602.621-4.324-46.083 10.614-.997c7.768-.728 12.074 3.416 12.918 12.435.253 2.675.048 5.013-.613 7.011-.661 2-1.996 3.681-4.001 5.043l9.094 20.366-6.989.656zm28.477-2.672l-2.871-9.72-8.997.845-1.016 10.085-6.599.619 5.964-47.048 5.502-.516 14.615 45.115-6.598.62zm18.897-1.774l-5.822.547-13.709-45.201 6.99-.656 8.26 31.675.13-.011 2.289-32.666 6.987-.655-5.125 46.967zm32.13-8.988c-.516 1.463-1.26 2.708-2.229 3.734s-2.091 1.838-3.364 2.438c-1.27.6-2.574.959-3.908 1.084-1.34.125-2.688.013-4.052-.337a11.045 11.045 0 0 1-3.753-1.771c-1.146-.828-2.105-1.913-2.889-3.255-.775-1.34-1.255-2.963-1.432-4.86l-2.285-24.335c-.173-1.854-.007-3.526.508-5.01s1.252-2.74 2.229-3.769a11.088 11.088 0 0 1 3.358-2.437 11.766 11.766 0 0 1 3.914-1.087 11.762 11.762 0 0 1 4.046.339c1.361.353 2.616.941 3.76 1.771 1.143.829 2.105 1.926 2.888 3.287.783 1.363 1.26 2.974 1.433 4.828l2.285 24.335c.178 1.901.009 3.582-.509 5.045z"/>
            <path d="M193.184 141.349c-.151-1.596-.705-2.731-1.66-3.401-.953-.674-2.035-.952-3.245-.84-1.206.113-2.219.589-3.033 1.429-.814.838-1.146 2.055-.994 3.65l2.285 24.337c.148 1.596.698 2.731 1.657 3.401.956.674 2.039.952 3.245.839 1.206-.112 2.218-.589 3.029-1.428.814-.838 1.149-2.055.998-3.65l-2.282-24.337z"/>
        </g>
    </g>
</svg>
