<?xml version="1.0" encoding="utf-8"?>
<!-- Generator: Adobe Illustrator 16.0.0, SVG Export Plug-In . SVG Version: 6.00 Build 0)  -->
<!DOCTYPE svg PUBLIC "-//W3C//DTD SVG 1.1//EN" "http://www.w3.org/Graphics/SVG/1.1/DTD/svg11.dtd">
<svg version="1.1" id="Layer_1" xmlns="http://www.w3.org/2000/svg" xmlns:xlink="http://www.w3.org/1999/xlink" x="0px" y="0px"
	 width="250px" height="250px" viewBox="0 0 250 250" enable-background="new 0 0 250 250" xml:space="preserve">
<g>
	<g>
		<polygon fill="#FFFFFF" points="73.813,84.926 72.145,101.929 78.747,101.311 73.943,84.914 		"/>
		<path fill="#FFFFFF" d="M15.753,69.625v61.094l191.408-18.06V51.564L15.753,69.625z M61.196,112.945
			c-0.417,1.347-1.055,2.548-1.912,3.607c-0.858,1.061-1.897,1.94-3.116,2.642c-1.218,0.704-2.562,1.124-4.027,1.262
			c-1.252,0.118-2.541,0.064-3.867-0.161c-1.328-0.222-2.548-0.707-3.662-1.451c-1.115-0.742-2.07-1.773-2.869-3.091
			c-0.799-1.319-1.297-3.035-1.496-5.149l-2.38-25.372c-0.144-1.51-0.017-2.937,0.381-4.281c0.396-1.341,1.024-2.533,1.885-3.569
			c0.86-1.039,1.922-1.891,3.188-2.554c1.266-0.663,2.696-1.068,4.292-1.217c1.51-0.145,2.938-0.004,4.285,0.413
			c1.344,0.418,2.537,1.066,3.576,1.95c1.04,0.882,1.894,1.975,2.561,3.285c0.666,1.307,1.075,2.76,1.226,4.357l0.243,2.589
			l-6.601,0.617l-0.208-2.199c-0.12-1.293-0.593-2.381-1.414-3.261c-0.825-0.882-1.862-1.263-3.11-1.146
			c-1.643,0.155-2.685,0.766-3.127,1.829c-0.446,1.065-0.595,2.372-0.448,3.927l2.212,23.558c0.125,1.339,0.52,2.434,1.19,3.285
			c0.666,0.851,1.754,1.206,3.266,1.063c0.43-0.04,0.887-0.157,1.368-0.357c0.483-0.198,0.913-0.487,1.289-0.871
			c0.379-0.385,0.668-0.89,0.871-1.519c0.203-0.628,0.261-1.396,0.175-2.302l-0.212-2.264l6.603-0.621l0.268,2.848
			C61.757,110.216,61.614,111.602,61.196,112.945z M83.427,117.128l-2.869-9.72l-8.994,0.843l-1.015,10.085l-6.601,0.619
			l5.964-47.047l5.502-0.517l14.617,45.115L83.427,117.128z M113.252,106.526c-0.231,1.696-0.735,3.182-1.508,4.451
			s-1.862,2.318-3.264,3.146c-1.402,0.829-3.159,1.34-5.274,1.541c-1.598,0.148-3.111,0.008-4.545-0.423
			c-1.436-0.431-2.692-1.086-3.775-1.965c-1.083-0.878-1.979-1.957-2.688-3.241c-0.709-1.28-1.136-2.701-1.28-4.253l-0.232-2.458
			l6.604-0.621l0.196,2.07c0.112,1.21,0.567,2.265,1.372,3.169c0.804,0.904,2.045,1.278,3.729,1.12
			c1.123-0.106,1.98-0.35,2.576-0.732c0.594-0.383,1.026-0.88,1.296-1.493c0.27-0.614,0.404-1.354,0.411-2.226
			c0.005-0.871-0.039-1.823-0.138-2.86c-0.113-1.208-0.25-2.197-0.409-2.966c-0.162-0.768-0.402-1.376-0.727-1.823
			c-0.324-0.448-0.751-0.801-1.273-1.057c-0.525-0.256-1.215-0.517-2.064-0.786l-4.908-1.497c-2.957-0.899-5.011-2.261-6.163-4.092
			c-1.151-1.826-1.86-4.188-2.132-7.078c-0.162-1.725-0.079-3.39,0.247-4.987c0.33-1.598,0.906-2.999,1.729-4.209
			c0.825-1.21,1.915-2.213,3.276-3.018c1.359-0.8,2.99-1.292,4.888-1.471c1.642-0.154,3.169,0.008,4.583,0.483
			c1.416,0.477,2.658,1.166,3.723,2.067c1.062,0.902,1.912,1.942,2.543,3.124c0.633,1.18,1.013,2.418,1.132,3.712l0.306,3.236
			l-6.601,0.621l-0.141-1.488c-0.142-1.51-0.621-2.783-1.436-3.816c-0.815-1.033-2.063-1.471-3.746-1.312
			c-0.91,0.085-1.636,0.328-2.187,0.727c-0.548,0.4-0.959,0.886-1.234,1.453c-0.273,0.571-0.44,1.217-0.504,1.941
			c-0.061,0.726-0.057,1.475,0.018,2.252c0.084,0.907,0.188,1.669,0.311,2.289c0.125,0.619,0.338,1.143,0.638,1.571
			c0.302,0.429,0.716,0.792,1.245,1.092s1.241,0.58,2.138,0.843l5.233,1.534c1.521,0.423,2.769,0.97,3.747,1.64
			c0.978,0.671,1.76,1.488,2.353,2.457c0.591,0.966,1.035,2.1,1.331,3.397c0.297,1.302,0.522,2.794,0.682,4.476
			C113.509,103.01,113.484,104.83,113.252,106.526z M130.35,112.723l-6.599,0.621l-3.742-39.869l-7.637,0.716l-0.582-6.213
			l21.875-2.054l0.582,6.216l-7.636,0.716L130.35,112.723z M141.544,111.672l-4.324-46.081l6.603-0.621l3.707,39.482l13.074-1.227
			l0.62,6.601L141.544,111.672z M165.428,109.433l-4.324-46.082l19.677-1.848l0.582,6.214l-13.074,1.228l1.273,13.525l11.388-1.068
			l0.582,6.214l-11.392,1.069l1.27,13.525l13.078-1.228l0.617,6.602L165.428,109.433z"/>
	</g>
	<g>
		<path fill="#FFFFFF" d="M117.47,147.899c-0.213-0.871-0.554-1.601-1.021-2.189c-0.47-0.586-1.085-0.998-1.845-1.229
			c-0.766-0.234-1.749-0.293-2.956-0.182l-3.432,0.324l1.35,14.366l3.754-0.351c1.164-0.109,2.077-0.359,2.737-0.747
			c0.659-0.389,1.146-0.901,1.455-1.542c0.309-0.638,0.488-1.405,0.535-2.303c0.045-0.896,0.015-1.926-0.095-3.093
			C117.846,149.79,117.684,148.771,117.47,147.899z"/>
		<path fill="#FFFFFF" d="M92.592,168.743c-0.21-0.85-0.549-1.545-1.013-2.092c-0.464-0.543-1.077-0.931-1.839-1.163
			c-0.762-0.233-1.748-0.293-2.956-0.181l-2.913,0.271l1.387,14.759l2.848-0.267c1.337-0.127,2.364-0.42,3.084-0.88
			c0.718-0.457,1.24-1.051,1.562-1.777c0.324-0.727,0.485-1.569,0.481-2.527c-0.002-0.956-0.057-1.996-0.162-3.117
			C92.96,170.602,92.802,169.597,92.592,168.743z"/>
		<polygon fill="#FFFFFF" points="140.916,148.669 139.248,165.671 145.851,165.054 141.047,148.658 		"/>
		<path fill="#FFFFFF" d="M90.581,157.41c0.651-1.173,0.878-2.812,0.679-4.929c-0.193-2.07-0.758-3.584-1.697-4.541
			c-0.94-0.958-2.508-1.332-4.709-1.125l-2.719,0.256l1.19,12.686l2.978-0.282C88.502,159.27,89.931,158.581,90.581,157.41z"/>
		<path fill="#FFFFFF" d="M42.841,137.341v61.095l191.406-18.061v-61.094L42.841,137.341z M97.387,182.593
			c-1.764,2.344-4.801,3.718-9.115,4.121l-8.995,0.845l-4.324-46.081l9.643-0.906c2.112-0.198,3.946-0.045,5.494,0.464
			c1.549,0.508,2.851,1.257,3.901,2.246c1.047,0.989,1.845,2.166,2.388,3.528c0.539,1.365,0.883,2.803,1.024,4.312l0.157,1.683
			c0.119,1.254,0.119,2.319,0.007,3.199c-0.113,0.882-0.335,1.664-0.661,2.347c-0.326,0.684-0.75,1.302-1.263,1.85
			c-0.514,0.549-1.12,1.074-1.812,1.575c1.622,0.585,2.867,1.569,3.737,2.944c0.869,1.377,1.417,3.273,1.645,5.689l0.242,2.588
			C99.834,177.053,99.146,180.251,97.387,182.593z M122.057,183.542l-7.995-19.098l-3.95,0.372l1.848,19.674l-6.602,0.621
			l-4.324-46.083l10.614-0.997c7.768-0.728,12.074,3.416,12.918,12.435c0.253,2.675,0.048,5.013-0.613,7.011
			c-0.661,2-1.996,3.681-4.001,5.043l9.094,20.366L122.057,183.542z M150.534,180.87l-2.871-9.72l-8.997,0.845l-1.016,10.085
			l-6.599,0.619l5.964-47.048l5.502-0.516l14.615,45.115L150.534,180.87z M169.431,179.096l-5.822,0.547l-13.709-45.201l6.99-0.656
			l8.26,31.675l0.13-0.011l2.289-32.666l6.987-0.655L169.431,179.096z M201.561,170.108c-0.516,1.463-1.26,2.708-2.229,3.734
			s-2.091,1.838-3.364,2.438c-1.27,0.6-2.574,0.959-3.908,1.084c-1.34,0.125-2.688,0.013-4.052-0.337
			c-1.361-0.353-2.61-0.941-3.753-1.771c-1.146-0.828-2.105-1.913-2.889-3.255c-0.775-1.34-1.255-2.963-1.432-4.86l-2.285-24.335
			c-0.173-1.854-0.007-3.526,0.508-5.01c0.515-1.484,1.252-2.74,2.229-3.769c0.971-1.026,2.085-1.837,3.358-2.437
			c1.272-0.598,2.578-0.96,3.914-1.087c1.341-0.125,2.685-0.01,4.046,0.339c1.361,0.353,2.616,0.941,3.76,1.771
			c1.143,0.829,2.105,1.926,2.888,3.287c0.783,1.363,1.26,2.974,1.433,4.828l2.285,24.335
			C202.248,166.964,202.079,168.645,201.561,170.108z"/>
		<path fill="#FFFFFF" d="M193.184,141.349c-0.151-1.596-0.705-2.731-1.66-3.401c-0.953-0.674-2.035-0.952-3.245-0.84
			c-1.206,0.113-2.219,0.589-3.033,1.429c-0.814,0.838-1.146,2.055-0.994,3.65l2.285,24.337c0.148,1.596,0.698,2.731,1.657,3.401
			c0.956,0.674,2.039,0.952,3.245,0.839c1.206-0.112,2.218-0.589,3.029-1.428c0.814-0.838,1.149-2.055,0.998-3.65L193.184,141.349z"
			/>
	</g>
</g>
</svg>
