<svg xmlns="http://www.w3.org/2000/svg" viewBox="0 0 100 100"><defs><style>.cls-1{fill:#fff;}.cls-2{fill:none;}</style></defs><title>Asset 1</title><g id="Layer_2" data-name="Layer 2"><g id="svg3070"><path class="cls-1" d="M92.61,0H7.39A7.28,7.28,0,0,0,0,7.16V92.84A7.28,7.28,0,0,0,7.39,100H92.61A7.28,7.28,0,0,0,100,92.84V7.16A7.28,7.28,0,0,0,92.61,0ZM30.31,83.71H15.21V38.55h15.1ZM22.76,32.39h-.1c-5.07,0-8.35-3.47-8.35-7.8s3.38-7.8,8.54-7.8,8.35,3.37,8.45,7.8S28,32.39,22.76,32.39Zm62,51.32H69.67V59.55c0-6.07-2.19-10.21-7.65-10.21a8.26,8.26,0,0,0-7.75,5.49,10.23,10.23,0,0,0-.5,3.66V83.71H38.67s.2-40.92,0-45.16h15.1V45A15,15,0,0,1,67.39,37.5c9.94,0,17.39,6.45,17.39,20.32Z"/><path class="cls-2" d="M22.86,16.79c-5.17,0-8.54,3.37-8.54,7.8s3.28,7.8,8.35,7.8h.1c5.27,0,8.55-3.47,8.55-7.8S28,16.79,22.86,16.79Z"/><rect class="cls-2" x="15.21" y="38.55" width="15.1" height="45.16"/><path class="cls-1" d="M53.78,45.1V45l-.1.15Z"/><path class="cls-2" d="M67.39,37.5A15,15,0,0,0,53.78,45v.15h-.1l.1-.15v-6.4H38.67c.2,4.24,0,45.16,0,45.16h15.1V58.49a10.23,10.23,0,0,1,.5-3.66A8.26,8.26,0,0,1,62,49.34c5.47,0,7.65,4.14,7.65,10.21V83.71h15.1V57.82C84.78,43.95,77.32,37.5,67.39,37.5Z"/></g></g></svg>