<svg xmlns="http://www.w3.org/2000/svg" viewBox="0 0 100 100"><defs><style>.cls-1{fill:#fff;}</style></defs><title>Asset 1</title><g id="Layer_2" data-name="Layer 2"><g id="svg3070"><path class="cls-1" d="M92.61,0H7.39A7.28,7.28,0,0,0,0,7.16V92.84A7.28,7.28,0,0,0,7.39,100H92.61A7.28,7.28,0,0,0,100,92.84V7.16A7.28,7.28,0,0,0,92.61,0ZM81.95,36q0,1,0,2c0,20.65-15.72,44.47-44.47,44.47a44.24,44.24,0,0,1-24-7,31.71,31.71,0,0,0,3.73.22A31.36,31.36,0,0,0,36.7,69a15.64,15.64,0,0,1-14.6-10.85,15.66,15.66,0,0,0,7.06-.27A15.64,15.64,0,0,1,16.63,42.55c0-.07,0-.13,0-.2a15.57,15.57,0,0,0,7.08,2,15.65,15.65,0,0,1-4.84-20.87A44.37,44.37,0,0,0,51.08,39.77,15.64,15.64,0,0,1,77.71,25.51a31.29,31.29,0,0,0,9.92-3.79,15.68,15.68,0,0,1-6.87,8.65,31.24,31.24,0,0,0,9-2.46A31.76,31.76,0,0,1,81.95,36Z"/></g></g></svg>